<?xml version="1.0" encoding="utf-8"?>
<!-- Generator: Adobe Illustrator 18.0.0, SVG Export Plug-In . SVG Version: 6.00 Build 0)  -->
<!DOCTYPE svg PUBLIC "-//W3C//DTD SVG 1.1//EN" "http://www.w3.org/Graphics/SVG/1.1/DTD/svg11.dtd">
<svg version="1.1" id="Calque_1" xmlns="http://www.w3.org/2000/svg" xmlns:xlink="http://www.w3.org/1999/xlink" x="0px" y="0px"
	 viewBox="0 0 916 483" enable-background="new 0 0 916 483" xml:space="preserve">
<linearGradient id="SVGID_1_" gradientUnits="userSpaceOnUse" x1="-0.305" y1="-0.1152" x2="0.7883" y2="1.6326" gradientTransform="matrix(-280.4557 0 0 90.0684 537.841 122.3703)">
	<stop  offset="0" style="stop-color:#424242"/>
	<stop  offset="1" style="stop-color:#000000"/>
</linearGradient>
<path fill="url(#SVGID_1_)" d="M856.2,256.2c4.9,9.1-4.4,15.2-7.4,20.7c-14.1,13.2-22.7,19.7-35.8,31.4
	c-26.5,19.2-49.3,30.7-75,41.1c-22.3,6.1-65,15.7-104.2,19.1c-16.2,0.3-35.1-0.5-50.8-0.8c-48.8-4-70.9-8.3-113.5-20.3
	c-40.1-13.1-80.4-35.1-113.5-57.2c-50.1-34.7-95.5-74.8-144.4-108.8C176,159,148.2,147.9,113.7,138c-13.3-2.6-38.3,23.2-67.3,32.8
	C31.7,176.9,3,182.6,2,178.5c0.7-3.7,18.7-9,28.7-23.4c10.4-9.2,14.8-23.2,23.7-29.2c0.9-2.2,4.9,0.3,6.4-1.3c-1.6-2-5-2.3-6.8-4.2
	c0.7-2.4,1.7-4.8,2.1-7.2c-1.9-2.9-6.5-2.9-5.9-5.1c2-0.7,16.2-0.1,28.4,0.8c12.6,1.5,24.5,5.5,28,5.9c2.8-0.5,15.5-7.7,25.4-10.6
	c27.8-11.9,74-10.7,83.4-10.2c26.8,1.5,51.5,9.1,71.8,15.5c30.8,10.1,76.1,29.5,90.4,34.9c17.5,5.6,35.2,10.1,64.8,16.9
	c22.4,2.1,45.4,5.4,58.4,8.3c9.8,2,42.7,11.9,57.2,15.4c14.4,3,31.2,6.7,43.2,8.9c41.7,7.1,85.1,18.1,111.8,23.3
	c16.2,2.3,58.1,6.4,71.1,7.1c5.1,0.2,8.3,0.3,11.7,0.6c15.1,1.1,23.8,2.8,31.1,8.1c7.1,3.9,14.4,11.5,20.8,17.3
	C854.6,254.7,853.1,252.8,856.2,256.2L856.2,256.2z"/>
<linearGradient id="SVGID_2_" gradientUnits="userSpaceOnUse" x1="-0.9946" y1="4.8229" x2="-2.3076" y2="-1.0436" gradientTransform="matrix(-35.7131 0 0 60.0722 439.3521 92.3223)">
	<stop  offset="0" style="stop-color:#424242"/>
	<stop  offset="1" style="stop-color:#000000"/>
</linearGradient>
<path fill="url(#SVGID_2_)" d="M557.1,184.7c-1.2,2-13.5-2.1-19.3-4.2c-13.6-3.5-29.4-6.4-43-9.1c-13.8-2-39.7-6-46.3-8.6
	c-2.2-3.4,8.3-4.8,16.9-18.1c8-14.2,14.6-28.7,20.6-44c7.7-20.4,14.3-41.5,17.8-59.9c1.5-15.3,2.3-26.1,2-37.2
	c1.7-3,6.3-1.4,9.6,0.7c6.7,6.1,9.7,13.7,13.4,24.7c5.3,18.8,9,38.9,11.2,67.7c3.7,25.2,6.8,48.3,11.2,75.8
	C552.5,178.1,555.4,180,557.1,184.7L557.1,184.7z"/>
<linearGradient id="SVGID_3_" gradientUnits="userSpaceOnUse" x1="-5.396" y1="9.7778" x2="-0.9877" y2="12.6877" gradientTransform="matrix(-25.9981 0 0 17.8469 468.177 212.1344)">
	<stop  offset="0" style="stop-color:#424242"/>
	<stop  offset="1" style="stop-color:#000000"/>
</linearGradient>
<path fill="url(#SVGID_3_)" d="M586.2,367.6c15.7,0.4,31.2,0.9,47.1,0.9c3.2-0.4,6.3-0.5,9.5-1l2.2,17.8l-27.4,26.3
	c-7.2,3.4-11.5,4.9-19.2,7.7c-6.5,2-15.1,3.4-23.6,2.1c-5.9-2.4-7.5-8.1-8.8-13.1c-0.8-5.9,0.2-12.2,3.6-18.1
	C574.1,382.3,580.5,375.3,586.2,367.6L586.2,367.6z"/>
<linearGradient id="SVGID_4_" gradientUnits="userSpaceOnUse" x1="-8.9628" y1="10.3277" x2="-8.765" y2="15.4756" gradientTransform="matrix(-25.5203 0 0 8.2043 512.2703 173.6283)">
	<stop  offset="0" style="stop-color:#F5FFF5;stop-opacity:0.9677"/>
	<stop  offset="1" style="stop-color:#000000"/>
</linearGradient>
<path fill="url(#SVGID_4_)" d="M765.2,250.7c-6.7-1-12.6-0.8-19.1,0.4c-10,1.1-20.4,1-30.8,3c-7.1,1.5-11.1,4.6-13.5,8.6
	c0.4,3.7,10.2,7.4,17.6,9.7c11.2,1.9,21.6,2.9,28.9,2.6c9.4-0.7,18.7-4.8,23.1-5.3c5.6-3.1,3.6-5.9,5.2-6.3c2-1.3,3-3.1,3-4.5
	C778.8,255.2,769.9,251.8,765.2,250.7z"/>
<linearGradient id="SVGID_5_" gradientUnits="userSpaceOnUse" x1="-0.1335" y1="2.0704" x2="1.1131" y2="3.5253" gradientTransform="matrix(-120.322 0 0 56.3841 469.1055 156.0472)">
	<stop  offset="0" style="stop-color:#F5FFF5;stop-opacity:0.9677"/>
	<stop  offset="1" style="stop-color:#000000"/>
</linearGradient>
<path fill="url(#SVGID_5_)" d="M285.9,198.5c-2,2.8-1.3,7.5,0.8,9.6c1.3,2.9,6.7,7.5,12.3,13.5c22.1,18.2,48.1,32.8,69.5,51.8
	c3.1,3.3,7.3,9,7.5,13.8c-0.6,1.8-3.9,2.2-8.6,1.1c-27.3-15.6-54.2-34.2-79.2-55.9c-2.5-1.7-4.7-4-6.6-3.6c-1.1,0.7-0.4,3.5-0.4,5.1
	c13.6,10.5,27.2,21.6,42,32.4c18.5,14.9,38.6,29.1,61.4,41.9c22.9,13.4,46.7,25.4,72.1,34.7c20.1,6.7,40.5,12.8,61.2,16.3
	c22,4.8,44.6,6.5,66.7,8.6c17.8-0.2,40.1,2,63.4-0.8c-2.6-2.6-3.9-4.3-6.6-6.9c-14.6-0.1-30.5-1-45.1-1.1c-31.1-1-61.9-2-94.1-9.7
	c-22.4-6.2-46.1-12.6-66.2-23.5c-4.6-1.8-9-8.4-12.2-16.6c-6.6-6.5-2.2-13.2-19.1-45.7c-7.5-17.8-22.7-31.4-38.2-42.6
	c-9.1-6.5-34.1-17.1-50.7-22.4C305.8,196.8,295.6,194.9,285.9,198.5L285.9,198.5z"/>
<linearGradient id="SVGID_6_" gradientUnits="userSpaceOnUse" x1="31.5285" y1="-0.4219" x2="32.8176" y2="3.2858" gradientTransform="matrix(-5.5252 0 0 3.2771 299.3183 135.1286)">
	<stop  offset="0" style="stop-color:#F5FFF5;stop-opacity:0.9677"/>
	<stop  offset="1" style="stop-color:#000000"/>
</linearGradient>
<path fill="url(#SVGID_6_)" d="M129.7,142.6c-1.1-0.1-5.3-1.6-7.8-2.3c-3-0.8-7-2-8.7-2.5c-0.5-1.1,4.6-4.9,5.9-5
	c1.6-0.4,8.4,0,9,0.9C129.1,135.5,130.6,141.9,129.7,142.6L129.7,142.6z"/>
<linearGradient id="SVGID_7_" gradientUnits="userSpaceOnUse" x1="-4.9391" y1="4.2945" x2="-6.1729" y2="6.1953" gradientTransform="matrix(-47.2785 0 0 27.3563 536.2212 180.4607)">
	<stop  offset="0" style="stop-color:#F5FFF5;stop-opacity:0.9677"/>
	<stop  offset="1" style="stop-color:#000000"/>
</linearGradient>
<path fill="url(#SVGID_7_)" d="M852.7,271.1c-2.1,2.7-2.1,3.6-3.9,6.2c-10.4,9.9-20.2,17.7-32.2,28c-8.3,7.1-18.7,13.7-28.3,19.7
	c-16.4,9.8-34,18.1-50.5,24.8c-3.5,1-16.3,4.5-17.7,4.7l-11.3-17c-1.2-3.3,1.4-8,4.9-13.1c13.2-13.3,29.2-34.9,41.3-39
	c16-2.6,29.2-6.8,31.8-6.2c0.4,1.9,0.3,3.2,1.5,4.8c4.7-1,7.7-2.1,10.2-2.9c4.9-1.2,18.2-4.6,30.5-5.8
	C841.4,273.9,851.7,269.9,852.7,271.1L852.7,271.1z"/>
<linearGradient id="SVGID_8_" gradientUnits="userSpaceOnUse" x1="-2.1121" y1="-0.2703" x2="-0.3613" y2="4.2823" gradientTransform="matrix(-26.08 0 0 29.9916 419.8647 144.6402)">
	<stop  offset="0" style="stop-color:#F5FFF5;stop-opacity:0.9677"/>
	<stop  offset="1" style="stop-color:#000000"/>
</linearGradient>
<path fill="url(#SVGID_8_)" d="M482,253.2c-2.7-1.5-5.7-2.6-7.9-4.3c-1.6-1.2-2.4-3.3-2.6-5.7c0.6-3.6,1.1-6.3,3.1-9.5
	c4.5-4.6,10.3-7.8,15.5-11.7c4.8-11.7,7.7-15.2,7.6-16.7c-0.6-4.1-4.7-10.4-7.4-13.8c-5.9-7.5-15.8-15-24.1-21
	c-4.9-2.6-15.8-6.4-24.8-7.1c-4.3-0.4-10.7-2.4-16.4-1.4c-3.1,1.3-6.3,3.9-6.9,6.9c0.6,2.8,6.4,8,10.2,11.7
	c7.8,8.1,12.6,26.2,21.9,30.7c2.1,3.3,3.9,18.5,7.9,26.4c1.6,3.3,7.1,10.5,9.8,11.9C469.2,250.5,476.6,252,482,253.2L482,253.2z"/>
<linearGradient id="SVGID_9_" gradientUnits="userSpaceOnUse" x1="-0.6048" y1="-3.2536" x2="-4.8163" y2="5.4055" gradientTransform="matrix(-39.7337 0 0 46.0097 494.058 202.795)">
	<stop  offset="0" style="stop-color:#424242"/>
	<stop  offset="1" style="stop-color:#000000"/>
</linearGradient>
<path fill="url(#SVGID_9_)" d="M724,342.5c-1.2-3.7-5-3-7.5-3.3c-5.3-0.1-10.8-0.3-17,0.6c-10.4,1-20.5,2.5-30.4,5.4
	c-9,2.6-17.7,5.8-25.9,11.2c-3.2,0.9-4.5,7-8.4,13.3c-6.9,9.8-13.6,20.4-18.5,31.7c-4.8,9.9-8.4,19.1-10.9,29.2
	c-2.7,7.1-3.3,14.9-1.9,26c1.3,5.9,7.9,16.1,13.5,21c3.3,2.1,9.9,2,15.5,1.3c9.6-3.2,17.8-9.1,25.5-15.9
	c13.4-10.5,32.8-32.9,35.8-37.7c4.3-5.9,12.4-24.3,16.5-36.2C717,370.7,723.9,346.4,724,342.5L724,342.5z"/>
</svg>
