<?xml version="1.0" encoding="utf-8"?>
<!-- Generator: Adobe Illustrator 18.0.0, SVG Export Plug-In . SVG Version: 6.00 Build 0)  -->
<!DOCTYPE svg PUBLIC "-//W3C//DTD SVG 1.1//EN" "http://www.w3.org/Graphics/SVG/1.1/DTD/svg11.dtd">
<svg version="1.1" id="Calque_1" xmlns="http://www.w3.org/2000/svg" xmlns:xlink="http://www.w3.org/1999/xlink" x="0px" y="0px"
	 viewBox="0 0 916 483" enable-background="new 0 0 916 483" xml:space="preserve">
<path fill="#000065" fill-opacity="0.4108" d="M125,465.6c0,0-63.6,0-85.8,8.4c-22.2,8.4,359.7,0,421.7,0.8s-39.8-3.8-60.4-7.6
	s-78-4-24-2.4L125,465.6z"/>
<g transform="matrix(1.23245,0,0,1.23245,16.11100,-7.01918)">
	<path fill="#FFFFF9" stroke="#000000" stroke-width="2.56" d="M134.2,180.2l3.5,164.4L-7,314.5c0,0,13.9-47.5,26.6-88
		s47.5-119.2,47.5-119.2L134.2,180.2L134.2,180.2z"/>
	<path fill="none" stroke="#000000" stroke-width="6.75" d="M143,372.3l-9.3-336.8"/>
	<path fill="none" stroke="#000000" stroke-width="6.875" d="M243.7,367.7L227.5,64.5"/>
	<path fill="#FFFFF9" stroke="#000000" stroke-width="2.56" d="M334,344.6c0,0-19.7,3.5-40.5,1.2c-20.8-2.3-48.6-3.5-48.6-3.5V198.7
		c0,0,15,27.8,34.7,60.2S334,344.6,334,344.6L334,344.6z"/>
	<path fill="none" stroke="#000000" stroke-width="7" d="M405,343.9l-75.3,12.3"/>
	<path fill="#253B59" stroke="#000000" stroke-width="2.75" d="M302.6,361.5c-20.8,2.8-85.9,8.3-119.2,11.1
		c-33.3,2.8-99.8-2.8-145.6-6.9s-12.5-2.8-26.3-11.1s47.1,5.5,63.8,4.2s54.1,1.4,95.7,2.8c41.6,1.4,170.5-6.9,170.5-6.9
		S323.4,358.7,302.6,361.5z"/>
	<path fill="#D7E7FF" stroke="#000000" stroke-width="2.75" d="M294.3,360.1c-23.6,4.2-69.3,5.5-101.2,8.3
		c-31.9,2.8-102.6-1.4-140-4.2c-37.4-2.8-44.4-9.7-44.4-9.7s-1.4,9.7,2.8,12.5s33.3,16.6,41.6,18s72.1,5.5,120.6,2.8
		c48.5-2.8,140,0,140,0l30.5-34.7C344.2,353.2,317.9,356,294.3,360.1z"/>
	<path fill-opacity="0.2973" d="M51.5,378.2c52.3,7.9,132.4,7.3,148.2,7.9c-7.4,0.6-6.9,1.7-27.3,1.7c-108.4-1.1-119-1.7-130.1-6.8
		S16.8,367,16.8,367S25.6,371.5,51.5,378.2z"/>
	<path fill-opacity="0.2" d="M335.2,360c0,0-5.7,7.4-27,18c-21.3,10.6-39.3,6.5-39.3,6.5l44.2,0.8L335.2,360L335.2,360z"/>
	<path fill="#FFFFF9" stroke="#000000" stroke-width="2.56" d="M251.8,201l46.3,122.7c0,0,11.6,2.3,34.7,4.6
		c23.1,2.3,68.3,12.7,68.3,12.7s-50.9-49.8-70.6-66C310.8,258.9,251.8,201,251.8,201L251.8,201z"/>
	<path fill="#FFFFF9" stroke="#000000" stroke-width="2.56" d="M292.3,219.6c-22-9.3-44-13.9-44-13.9s0-31.3-2.3-53.2
		s-11.6-64.8-11.6-64.8s27.8,44,46.3,70.6s56.7,88,56.7,88S314.3,228.8,292.3,219.6z"/>
	<path fill="#FAFAF3" stroke="#000000" stroke-width="2.56" d="M241.4,343.4l-99.5-5.8c0,0,6.9-108.8,9.3-135.4
		c2.3-26.6,9.3-56.7,9.3-56.7l70.6,64.8L241.4,343.4z"/>
	<path fill-opacity="4.324000e-002" d="M239.7,342.2l-98.2-4.9l9.8-132.6l9.8-57.3l68.7,63.8L239.7,342.2L239.7,342.2z"/>
	<path fill="#FFFFF9" stroke="#000000" stroke-width="2.56" d="M225.2,91.1l6.9,123.8c0,0-6.9-5.8-12.7-24.3s-8.1-53.2-9.3-60.2
		C209,123.5,225.2,91.1,225.2,91.1L225.2,91.1z"/>
	<path fill="#FFFFF9" stroke="#000000" stroke-width="2.56" d="M131.4,51.7l1.2,56.7c0,0,0,11.6-2.3,27.8s-13.9,53.2-13.9,53.2
		l-41.7-79.9c0,0,12.7-6.9,26.6-15S131.4,51.7,131.4,51.7L131.4,51.7z"/>
	<path fill="none" stroke="#000000" d="M336.3,245c0,0,66,88,68.3,96.1"/>
	<path fill="none" stroke="#000000" d="M213.6,150.1l-74.1-16.2l85.7-49.8"/>
	<path fill="none" stroke="#000000" d="M136.1,42.5l75.2,92.6"/>
	<path fill-opacity="8.649000e-002" d="M351.1,328.4c0,0-31.5-10.8-47.3-23.3s-49.3-88-49.3-88l45.3,107.7L351.1,328.4L351.1,328.4z
		"/>
	<path fill-opacity="8.649000e-002" d="M318.2,345.5c0,0-39.3-27.8-50.7-47.5c-11.5-19.6-21.3-78.6-21.3-78.6l1.6,122.8L318.2,345.5
		L318.2,345.5z"/>
	<path fill-opacity="8.649000e-002" d="M287.1,216.2c0,0-13.1-19.6-21.3-42.6c-8.2-22.9-21.3-44.2-21.3-44.2s1.6,4.9,3.3,26.2
		c1.6,21.3,1.6,49.1,1.6,49.1s4.9,0,18,3.3S287.1,216.2,287.1,216.2L287.1,216.2z"/>
	<path fill-opacity="8.649000e-002" d="M103.8,262c-13.1-34.4-37.6-152.2-37.6-152.2L17.1,232.6l-22.9,80.2l142.4,31.1
		C136.6,343.9,116.9,296.4,103.8,262z"/>
	<path fill-opacity="8.649000e-002" d="M76,111.4c0,0,21.3-8.2,34.4-11.5c13.1-3.3,1.6,11.5,1.6,39.3s6.5,47.5,6.5,47.5L76,111.4z"
		/>
	<path fill-opacity="0.2811" d="M315,271.9c0,0-4.9-1.6-16.4-3.3s-18,3.3-18,3.3l-13.1-34.4c0,0-1.6,0,11.5,6.5
		C292.1,250.6,315,271.9,315,271.9L315,271.9z"/>
	<path fill="none" stroke="#000000" stroke-opacity="0.4865" d="M401.7,342.2l-88.4-70.4"/>
	<path fill-opacity="0.1622" d="M331.3,342.2l-21.3,3.3l-63.8-4.9V199.8c0,0,4.9,36,16.4,60.6C274,285,331.3,342.2,331.3,342.2
		L331.3,342.2z"/>
	<path fill="#FFFFF9" fill-opacity="0.7568" d="M231.5,212.9c0,0-32.7-36-37.6-21.3s-6.5,40.9-6.5,40.9l9.8,32.7
		c0,0,8.2,14.7,16.4,4.9C221.7,260.4,231.5,212.9,231.5,212.9s-14.7,93.3-11.5,104.8s21.3,22.9,21.3,22.9L231.5,212.9z"/>
	<path fill-opacity="0.173" d="M231.5,211.3l-19.6,3.3c-9.8,1.6-27.8-18-34.4-37.6c-6.5-19.6-1.6-16.4-1.6-16.4L231.5,211.3
		L231.5,211.3z"/>
	<path fill-opacity="8.649000e-002" d="M229.9,342.2c0,0-16.4-22.9-18-37.6c-1.6-14.7-8.2-31.1-22.9-76.9s-31.1-70.4-31.1-70.4
		l-6.5,45.8l-8.2,134.2L229.9,342.2L229.9,342.2z"/>
	<path fill-opacity="8.108000e-002" d="M136.6,327.5c0,0-4.9-29.5-13.1-52.4c-8.2-22.9-18-31.1-18-31.1s-4.9-29.5-11.5-54
		s-19.6-60.6-19.6-60.6l27.8,111.3L136.6,327.5L136.6,327.5z"/>
	<path fill-opacity="3.243000e-002" d="M127.9,264.2c-7.5-21-16.6-28.5-16.6-28.5s-4.5-27-10.6-49.6s-18.1-55.6-18.1-55.6
		l25.6,102.1l31.7,79.6C140,312.3,135.4,285.2,127.9,264.2z"/>
	<path fill-opacity="8.108000e-002" d="M95.6,335.7c0,0-65.5-36-73.7-57.3c-8.2-21.3,3.3-65.5,3.3-65.5l-31.1,99.8L95.6,335.7
		L95.6,335.7z"/>
	<path fill-opacity="8.108000e-002" d="M197.1,339c0,0-36-11.5-44.2-16.4c-8.2-4.9-4.9-60.6-4.9-60.6l-4.9,75.3L197.1,339L197.1,339
		z"/>
	<path fill-opacity="0.1784" d="M229.9,212.9c0,0-4.9-9.8-9.8-21.3s-4.9-26.2-4.9-26.2s1.6-11.5,3.3-24.6s3.3-34.4,3.3-34.4
		s-1.6,22.9,0,42.6S229.9,212.9,229.9,212.9L229.9,212.9z"/>
	<path fill="none" stroke="#000000" stroke-width="4.6" d="M-10.8,312.8l153.9,31.1"/>
	<path fill="none" stroke="#000000" stroke-width="3.7" d="M144.7,337.3l96.6,4.9"/>
	<path fill="none" stroke="#000000" stroke-width="3.1" d="M339.5,347.2l-94.9-6.5"/>
	<path fill-opacity="0.173" d="M74.4,113.1c-4.9-3.3-13.1,13.1-13.1,13.1s11.5,4.9,29.5,24.6s24.6,40.9,24.6,40.9
		S79.3,116.4,74.4,113.1z"/>
	<path fill="none" stroke="#000000" stroke-width="1.4" d="M133.3,10l1.6,31.1"/>
	<path fill="#7799EB" d="M75.2,18.1c0,0,9.8,1.6,26.2,9.8s11.5,1.6,21.3,1.6c9.8,0,9.8,11.5,9.8,11.5l-1.6-29.5
		c0,0-16.4,4.9-27.8,3.3S75.2,18.1,75.2,18.1L75.2,18.1z"/>
	<path fill-opacity="0.2108" d="M124.1,10.7c0,0-6.5,6.5-11.5,13.1c-4.9,6.5-8.2-3.3-4.9,3.3s8.2,1.6,8.2,1.6L124.1,10.7L124.1,10.7
		z"/>
	<path fill="#FFFFFF" fill-opacity="0.4919" d="M100.1,24.7c-8.7,0-1.2-9.8-1.2-9.8h12.4C111.2,14.9,108.8,24.7,100.1,24.7z"/>
</g>
</svg>
