<?xml version="1.0" encoding="UTF-8" standalone="no"?>
<svg viewBox="0 0 520.12775 501.88422" xmlns="http://www.w3.org/2000/svg" xmlns:xlink="http://www.w3.org/1999/xlink">
<defs>
<clipPath id="clipPath3987">
<path d="m-419.07883,495.71436 19.42828-7.15778c0,0 149.30232,1.30137 223.93647,0 29.32622-.51135 58.66468-1.24274 87.93853-3.06763 30.39868-1.89501 91.00614-8.18032 91.00614-8.18032l-5.1127,6.13524c0,0-28.49174,6.87916-42.94672,9.20287-25.04806,4.02661-50.34202,6.69319-75.66804,8.18033-70.77753,4.15604-141.78989,1.70423-212.68852,2.04508-15.33794.0737-30.73666,1.36021-46.01434,0-13.45225-1.19768-39.8791-7.15779-39.8791-7.15779z"/>
</clipPath>
<filter id="filter3872">
<feGaussianBlur stdDeviation=".2939"/>
</filter>
<filter id="filter3892">
<feGaussianBlur stdDeviation=".9678"/>
</filter>
<filter id="filter3900">
<feGaussianBlur stdDeviation=".6715"/>
</filter>
<filter id="filter3910">
<feGaussianBlur stdDeviation=".6583"/>
</filter>
<filter id="filter3926">
<feGaussianBlur stdDeviation="1.6944"/>
</filter>
<filter height="1.41109" id="filter3981" width="1.02549" x="-.01274" y="-.20555">
<feGaussianBlur stdDeviation="2.2425"/>
</filter>
<linearGradient id="linearGradient3846">
<stop offset="0" stop-color="#0240ab"/>
<stop offset="1" stop-color="#75caef"/>
</linearGradient>
<linearGradient id="linearGradient3802">
<stop offset="0" stop-color="#022b99"/>
<stop offset="1" stop-color="#0165ca"/>
</linearGradient>
<linearGradient gradientUnits="userSpaceOnUse" id="linearGradient4024" x1="-310.73014" x2="-469.2286" y1="511.86187" y2="27.17743">
<stop offset="0" stop-color="#7ecef4"/>
<stop offset="1" stop-color="#37abc8"/>
</linearGradient>
<linearGradient gradientUnits="userSpaceOnUse" id="linearGradient4026" spreadMethod="reflect" x1="-359.12336" x2="-326.42454" y1="260.13391" y2="248.88596">
<stop offset="0" stop-color="#dbe2e3" stop-opacity=".7395"/>
<stop offset="1" stop-color="#dbe2e3" stop-opacity="0"/>
</linearGradient>
<linearGradient gradientUnits="userSpaceOnUse" id="linearGradient4028" x1="-420.79688" x2="-313.59515" xlink:href="#linearGradient3802" y1="361.66882" y2="228.62842"/>
<linearGradient gradientUnits="userSpaceOnUse" id="linearGradient4030" x1="-460.28086" x2="-461.49147" xlink:href="#linearGradient3846" y1="79.12877" y2="56.51489"/>
<linearGradient gradientUnits="userSpaceOnUse" id="linearGradient4032" x1="-421.98032" x2="-425.36218" xlink:href="#linearGradient3846" y1="209.24974" y2="181.64114"/>
<linearGradient gradientUnits="userSpaceOnUse" id="linearGradient4034" x1="-383.79022" x2="-389.00717" xlink:href="#linearGradient3846" y1="355.9339" y2="339.57327"/>
<radialGradient cx="-145.03125" cy="238.48438" gradientTransform="matrix(1,0,0,1.5356,-212.57543,-120.50274)" gradientUnits="userSpaceOnUse" id="radialGradient4022" r="151.84375" xlink:href="#linearGradient3802"/>
</defs>
<g transform="translate(514.89717,-3.60918)">
<path d="m-308.9375,482.4375c-2.39733.24735-4.71894,1.0451-6.65625,2.3125-1.31306.85901-1.99689,2.34579-2.5625,3.625s-.90625,2.40625-.90625,2.40625l2.21875.65625c0,0 .31361-.99669.8125-2.125s1.31626-2.33044 1.71875-2.59375c3.15544-2.06431 8.04682-2.65676 11.40625-1.125 .63813.29096 1.80977,1.70366 2.59375,3.0625s1.28125,2.59375 1.28125,2.59375l2.1875-.90625c0,0-.56585-1.36421-1.4375-2.875s-1.95661-3.22503-3.65625-4c-2.14215-.97673-4.60267-1.2786-7-1.03125z" fill="#483e37"/>
<path d="m-350.9375,482.4375c-2.39733.24735-4.71894,1.0451-6.65625,2.3125-1.31306.85901-1.99689,2.34579-2.5625,3.625s-.90625,2.40625-.90625,2.40625l2.21875.65625c0,0 .31361-.99669.8125-2.125s1.31626-2.33044 1.71875-2.59375c3.15544-2.06431 8.04682-2.65676 11.40625-1.125 .63813.29096 1.80977,1.70366 2.59375,3.0625s1.28125,2.59375 1.28125,2.59375l2.1875-.90625c0,0-.56585-1.36421-1.4375-2.875s-1.95661-3.22503-3.65625-4c-2.14215-.97673-4.60267-1.2786-7-1.03125z" fill="#483e37"/>
<g transform="matrix(.99588,0,0,.99588,-1.46459,1.01899)">
<path d="m-238.60369,370.20976c-28.22585,3.45998-66.27104,4.21432-104.89493,8.53567-71.42453,7.99118-137.67486,30.57646-137.67486,30.57646s-2.28508-.98285-2.52629-2.03336c-.38327-1.66929 2.23408-4.61412 2.23408-4.61412s66.00024-21.2168 136.74254-29.62611c40.56916-4.82255 76.38796-5.25899 104.1692-9.30678l2.71296-.38046z" fill="#374837"/>
<path d="m-443.63793,12.54296-65.8125,45.53125v9.40625c0,0 23.91691,232.57413 36.875,331.15625 1.28205,9.75354 16.25859,11.34019 25.3125,15.1875 76.73016,32.60523 241.5,65.0625 241.5,65.0625s-64.62294-169.43285-105.5625-250.15625c-37.3543-73.65409-127.25-212.59375-127.25-212.59375l-5.0625-3.59375zm27.5625,52.96875c0,0 55.8682,100.57522 81.1875,152.1875 30.63917,62.45661 85.5,190.375 85.5,190.375l-55.21875,6.125h-29.65625l-28.625-3.0625-28.625-16.375-9.21875-16.34375-66.46875-306.78125 51.125-6.125z" fill="url(#radialGradient4022)"/>
<path d="m-444.70043,29.73046-60.3125,34.75 40.90625,282.21875 14.3125,46.03125 16.34375,18.40625 167.6875,45 31.71875-6.15625-19.53125-41.4375-51.03125,5.65625h-29.65625l-28.625-3.0625-28.625-16.375-9.21875-16.34375-66.46875-306.78125 51.125-6.125 5.21875,9.4375-17.46875-37.03125-16.375-8.1875z" fill="url(#linearGradient4024)"/>
<path d="m-250.23399,407.89109-55.21722,6.13524h-29.65369l-28.63115-3.06762-28.63115-16.36066-9.20287-16.36065-66.46517-306.7623 51.12705-6.13525c0,0 55.8514,100.5566 81.1707,152.16888 30.63918,62.45661 85.5035,190.38236 85.5035,190.38236z" fill="url(#linearGradient4026)"/>
<path d="m-472.01242,68.97995-.84375.09375 .6875,3.21875 66.46875,306.75 .0937.4375 .21875.40625 9.21875,16.34375 .40625.75 .71875.40625 28.625,16.34375 .53125.3125 .625.0625 28.625,3.09375h.1875 .15625 29.65626 .15625 .15625l55.21875-6.15625 4.03125-.4375-.28125-.6875-8.6875-4.9375c.0186.0433.20326.49518.21875.53125l-50.8125,5.6875h-.0625-29.56251-.0312l-27.75-3-27.3125-15.625-8.5625-15.15625-65.6875-303.1875 .46875-.0625-6.875-5.1875z" fill="url(#linearGradient4028)"/>
<path d="m-340.69233,184.66055c-73.96477,13.49525-152.41693,29.5625-152.41693,29.5625s-2.58049,2.95448-2.20939,4.625c.23354,1.05128 2.48556,2.03125 2.48556,2.03125s79.75004-17.2487 154.81043-30.75l-2.66967-5.46875z" filter="url(#filter3892)" opacity=".4"/>
<path d="m-447.02326,7.98984c0,0 87.92436,139.71651 125.26127,213.19979 44.25718,87.10315 116.56967,268.92828 116.56967,268.92828l7.66906-.51128c0,0-59.58738-162.37856-119.12603-273.01844-38.49538-71.53544-124.23873-211.15471-124.23873-211.15471s-3.6751-1.44227-5.1127-.51127c-.90471.58589-1.02254,3.06762-1.02254,3.06762z" fill="#374837"/>
<path d="m-413.86878,64.1572c-51.05131,6.68184-92.9283,12.68618-92.9283,12.68618s-2.65691,2.78843-2.3945,4.4791c.16514,1.06397 2.30125,2.15255 2.30125,2.15255s43.39587-6.72748 95.93149-13.77579l-2.90994-5.54204z" filter="url(#filter3872)" opacity=".4"/>
<path d="m-413.99727,62.1572c-53.30548,6.68184-97.03155,12.68618-97.03155,12.68618s-2.77423,2.78843-2.50023,4.4791c.17243,1.06397 2.40286,2.15255 2.40286,2.15255s45.31202-6.72748 100.16735-13.77579l-3.03843-5.54204z" fill="url(#linearGradient4030)"/>
<path d="m-342.1875,181.9375c-75.32443,13.49525-155.21875,29.5625-155.21875,29.5625s-2.62792,2.95448-2.25,4.625c.23783,1.05128 2.53125,2.03125 2.53125,2.03125s81.21605-17.2487 157.65625-30.75l-2.71875-5.46875z" fill="url(#linearGradient4032)"/>
<path d="m-274.80738,319.98164c-80.37939,22.1782-198.58338,59.54001-198.58338,59.54001s-2.21285,3.09119-1.67106,4.65913c.34096.98671 2.6737,1.69422 2.6737,1.69422s118.39358-38.85146 199.95062-60.35687l-2.36988-5.53649z" filter="url(#filter3900)" opacity=".4"/>
<path d="m-252.62332,364.74571c-76.05872,17.42523-217.3329,35.20586-217.3329,35.20586s-1.72895,1.67853-1.61873,2.75c.17515,1.70261 3.41406,3.625 3.41406,3.625s140.6681-19.50459 215.80245-34.83086c.83716-.17077 1.69009-.35713 2.53111-.53125z" filter="url(#filter3910)" opacity=".4"/>
<path d="m-274.875,317.8125c-82.67304,22.90828-204.25,61.5-204.25,61.5s-2.276,3.19295-1.71875,4.8125c.35069,1.0192 2.75,1.75 2.75,1.75s121.77196-40.13041 205.65625-62.34375l-2.4375-5.71875z" fill="url(#linearGradient4034)"/>
<path d="m-239.78125,365.46875c-80.75816,17.42523-243.8125,37.375-243.8125,37.375s-1.83578,1.67853-1.71875,2.75c.18597,1.70261 3.625,3.625 3.625,3.625s162.41082-21.67373 242.1875-37c.88889-.17077 1.79452-.35713 2.6875-.53125l-2.96875-6.21875z" fill="#374837"/>
<path d="m-446.84222,13.11331 14.46091,4.33827c0,0 101.42402,160.91002 143.88609,245.83553 33.67017,67.34144 87.48853,208.23714 87.48853,208.23714l-17.3531-1.44609c0,0-50.77364-135.39891-82.4272-200.28364-43.16201-88.4752-146.05523-256.68122-146.05523-256.68122z" fill="#022d9b"/>
<path d="m-421.125,48.0625c43.76739,73.44603 87.69024,146.98257 125.58095,223.61711 30.10759,63.31505 54.57674,129.57023 80.2628,194.50789 2.83261.10772 6.03439,1.21794 8.625.84375-17.77721-43.02408-34.0241-86.65563-52.528-129.43093-18.4322-43.76677-38.88943-86.5149-62.54225-127.72073-35.41473-63.32501-73.72078-125.32556-111.961-186.91084-.88682-2.52596-6.31894-4.22935-2.73734-.39652l15.29984,25.49027z" fill="#60bfe1" filter="url(#filter3926)" opacity=".35"/>
</g>
<path d="m-419.07883,495.71436c0,0 12.53495-7.496 19.42828-7.15778 66.3281,3.25439 149.30232,1.30137 223.93647,0 29.32622-.51135 58.66468-1.24274 87.93853-3.06763 30.39868-1.89501 91.00614-8.18032 91.00614-8.18032l-5.1127,6.13524c0,0-28.49174,6.87916-42.94672,9.20287-25.04806,4.02661-50.34202,6.69319-75.66804,8.18033-70.77753,4.15604-141.78989,1.70423-212.68852,2.04508-15.33794.0737-30.73666,1.36021-46.01434,0-13.45225-1.19768-39.8791-7.15779-39.8791-7.15779z" fill="#e5e1b2"/>
<path clip-path="url(#clipPath3987)" d="m4.26383,483.43238c0,0-14.02784,1.47129-31.5625,3.15625-5.65412,1.19396-11.20773,2.31-15.5,3-25.04806,4.02661-50.33023,6.66911-75.65625,8.15625-70.77753,4.15604-141.78887,1.72165-212.6875,2.0625-15.33794.0737-30.72232,1.36021-46,0-6.63696-.5909-16.43474-2.34707-24.65625-3.96875l-16.25,6c0,0 26.42275,5.95857 39.875,7.15625 15.27768,1.36021 30.66206.0737 46,0 70.89863-.34085 141.90997,2.12479 212.6875-2.03125 25.32602-1.48714 50.63944-4.16089 75.6875-8.1875 14.45498-2.32371 42.9375-9.1875 42.9375-9.1875l5.125-6.15625z" fill="#6c5d53" filter="url(#filter3981)"/>
</g>
</svg>
