<?xml version="1.0" encoding="utf-8"?>
<!-- Generator: Adobe Illustrator 18.0.0, SVG Export Plug-In . SVG Version: 6.00 Build 0)  -->
<!DOCTYPE svg PUBLIC "-//W3C//DTD SVG 1.1//EN" "http://www.w3.org/Graphics/SVG/1.1/DTD/svg11.dtd">
<svg version="1.1" id="Layer_1" xmlns="http://www.w3.org/2000/svg" xmlns:xlink="http://www.w3.org/1999/xlink" x="0px" y="0px"
	 viewBox="0 0 437.8 231.5" enable-background="new 0 0 437.8 231.5" xml:space="preserve">
<g id="Layer_1_1_">
</g>
<g id="Layer_5">
	<g>
		<path fill="#010101" d="M371.9,135c-8.1,3.2-61.3,22.2-83.3,26.1c-22,3.9-92.7-8.8-100.9-11.4c-8.2-2.6-50-14.2-57-14.8
			c-7-0.7-14.7,5.7-20.3,12.6c-5.6,6.9-9.7,3.6-8.2-0.4c1.6-4,3.9-20,3.3-21.8c-0.7-1.8-5.3-3-8.6-1c-3.2,1.9-1.9-9.9-4-12.6
			c-2.1-2.7-6.5-7.1-6.1-4.3c0.4,2.9-2.2,11-5.6,22.3c-3.4,11.3-15.6,9.3-13.2,4.4c2.3-4.9,2.9-31.3,2-36.5
			C69,92.4,26.8,38.2,16,26.1C5.2,14-1.8,4.5,4.4,8.3c6.2,3.8,44,33.6,59.5,46.9s13.9,23.9,20,21.6c6.1-2.3,2.3-9.4,5.7-9.6
			c6.2-0.5,7.9,8.1,11.8,10.1c3.9,2.1,35.5-0.5,39.9-2.7c4.4-2.2,17-10.6,20.3-17c3.2-6.4,0.3-23.1,0.9-30.1
			c0.7-7,4.9-26.4,7.7-26.2c10.9,0.5,33.4,49.8,39.5,56.2c6.1,6.5,22.1,6.6,60.4,7.9c38.3,1.3,78.1,12.4,110.4,17.7
			c32.3,5.3,47.3,11.8,45.1,18.5c-2.2,6.6-29,18.7-42,22.1C383.6,123.6,382.9,130.6,371.9,135z"/>
		
			<linearGradient id="SVGID_1_" gradientUnits="userSpaceOnUse" x1="501.4458" y1="-426.1249" x2="491.1201" y2="-397.4423" gradientTransform="matrix(0.9701 0.2427 0.2427 -0.9701 -188.782 -441.3987)">
			<stop  offset="0" style="stop-color:#6688BF;stop-opacity:0"/>
			<stop  offset="1" style="stop-color:#010101"/>
		</linearGradient>
		<path fill="url(#SVGID_1_)" d="M73.3,89.4c11.4,11.1,27.5,12.8,41.7,12.8c67.6-0.8,136.6,2.2,196.8-30c1.1-0.7,1.8-1.3,2-1.9
			c-14.5-2.5-29.3-4.4-43.8-4.9c-38.3-1.3-54.3-1.4-60.4-7.9c-1-1.1-2.5-3.4-4.3-6.4c1.1,3.2,2.1,6.4,1,7.7
			c-5,5.8-15.6,0.8-24.2,2.2c-3.9,1.4-7.5,6.4-11.4,7.8c-9.5,1.8-19.2,4.7-28.7,5.4c-0.3,0.1-0.5,0.3-0.7,0.4
			c-4.4,2.2-36,4.8-39.9,2.7c-3.9-2.1-5.6-10.6-11.8-10.1c-3.4,0.3,0.4,7.3-5.7,9.6c-3,1.1-4.1-0.8-6.3-4.6
			C76,78.4,67.9,84.1,73.3,89.4z"/>
		
			<linearGradient id="SVGID_2_" gradientUnits="userSpaceOnUse" x1="440.9124" y1="623.5146" x2="415.9044" y2="583.3984" gradientTransform="matrix(0.9701 0.2427 -0.2427 0.9701 -0.3073 -552.2823)">
			<stop  offset="0" style="stop-color:#E0DFDD"/>
			<stop  offset="1" style="stop-color:#A6B5CF"/>
		</linearGradient>
		<path fill="url(#SVGID_2_)" d="M288.6,161.1c21.9-3.9,75.2-22.9,83.3-26.1c11-4.4,11.7-11.4,11.7-11.4c13-3.4,39.7-15.4,42-22.1
			c0.5-1.4,0.2-2.8-0.9-4.2c-1.3,2.9-5.2,5.3-10.5,6c-10.1,1.4-119.3,8.4-136.7,10.5c-17.4,2.1-49.1,2-62.6,9.6
			c-13.6,7.6-91.3-0.2-95.3,0.1c-4,0.3-3.2,2.4-1.5,6.1c1.2,2.7-9.2,15-13.5,21.7c1.5,0,3.6-1.1,5.9-4c5.6-6.9,13.2-13.2,20.3-12.6
			c7,0.7,48.8,12.2,57,14.8C195.9,152.3,266.7,165,288.6,161.1z"/>
		<path fill="#010101" d="M257.3,149.4c-11.9,2.6-35.5,18.2-48.6,33.1c-13.1,14.9-53.5,41.8-64.3,47.4c-10.8,5.6,17.9-31.9,32-48.3
			c14-16.4,23.1-26.2,19.7-32.6c-3.4-6.4,17-4,27.5-8.6C234.2,135.9,259.6,148.9,257.3,149.4z"/>
		<g>
			<path fill="#010101" d="M346.7,104c-0.7,1.2-1.1,3-0.7,4.4c0.7,2.7,3.6,4.4,6.3,3.6c2.3-0.6,3.9-3,3.9-5.2
				C352.8,106.3,350.2,105.4,346.7,104z"/>
			
				<radialGradient id="SVGID_3_" cx="996.4205" cy="-628.0848" r="8.6582" gradientTransform="matrix(0.7771 0.1944 0.1944 -0.7771 -303.7515 -572.0249)" gradientUnits="userSpaceOnUse">
				<stop  offset="0" style="stop-color:#DAEFEB"/>
				<stop  offset="1" style="stop-color:#FFFFFF"/>
			</radialGradient>
			<path fill="url(#SVGID_3_)" d="M347.4,104.9c-0.6,0.9-0.8,2.1-0.5,3.3c0.6,2.2,2.9,3.5,5.1,2.9c1.8-0.5,3-2.2,3.1-4
				C352.4,107.1,349.8,106.4,347.4,104.9z"/>
			<path fill="#010101" d="M349,105.7c-0.5,0.7-0.6,1.5-0.4,2.4c0.4,1.5,2,2.4,3.5,2c1.4-0.4,2.2-1.7,2.1-3
				C352.4,106.9,350.6,106.5,349,105.7z"/>
			
				<radialGradient id="SVGID_4_" cx="-1795.9442" cy="535.675" r="3.7181" gradientTransform="matrix(-0.3559 -0.3725 -0.3724 0.3561 -87.455 -751.3415)" gradientUnits="userSpaceOnUse">
				<stop  offset="0" style="stop-color:#010101"/>
				<stop  offset="1" style="stop-color:#FFFFFF"/>
			</radialGradient>
			<path opacity="0.58" fill="url(#SVGID_4_)" enable-background="new    " d="M350.9,108.2c0.5-0.5,1.2-0.4,1.7,0
				c0.5,0.5,0.4,1.3,0,1.7c-0.5,0.5-1.2,0.4-1.7,0C350.4,109.4,350.4,108.7,350.9,108.2z"/>
			<path fill="#FFFFFF" d="M351.6,108.2c0.1,0.3-0.1,0.7-0.5,0.8c-0.4,0.1-0.7-0.1-0.8-0.5c-0.1-0.3,0.1-0.7,0.5-0.8
				C351.1,107.7,351.5,107.9,351.6,108.2z"/>
		</g>
		<path fill="#010101" d="M382.7,126.1c0.7-1.5,0.8-2.5,0.8-2.5s-38.7,10.7-46.8,8.7C336.7,132.3,340.1,135.5,382.7,126.1z"/>
		<path fill="#010101" d="M232.3,105.9c1.7,3.9,7.3,25.6,13.4,29.5L232.3,105.9z"/>
		<path fill="#010101" d="M241.4,106.1c1.7,3.9,7.3,25.6,13.4,29.5L241.4,106.1z"/>
		<path fill="#010101" d="M250,106.4c1.7,3.9,7.3,25.6,13.4,29.5L250,106.4z"/>
		<path fill="#010101" d="M259.3,107.8c1.7,3.9,7.3,25.6,13.4,29.5L259.3,107.8z"/>
		
			<linearGradient id="SVGID_5_" gradientUnits="userSpaceOnUse" x1="546.9307" y1="-445.5161" x2="552.0536" y2="-440.7527" gradientTransform="matrix(0.9701 0.2427 0.2427 -0.9701 -188.782 -441.3987)">
			<stop  offset="0" style="stop-color:#6688BF"/>
			<stop  offset="1" style="stop-color:#FFFFFF"/>
		</linearGradient>
		<path fill="url(#SVGID_5_)" d="M233.2,105.3c1.7,3.9,6.3,26.2,12.5,30.1L233.2,105.3z"/>
		
			<linearGradient id="SVGID_6_" gradientUnits="userSpaceOnUse" x1="555.8475" y1="-443.5088" x2="560.9711" y2="-438.7449" gradientTransform="matrix(0.9701 0.2427 0.2427 -0.9701 -188.782 -441.3987)">
			<stop  offset="0" style="stop-color:#6688BF"/>
			<stop  offset="1" style="stop-color:#FFFFFF"/>
		</linearGradient>
		<path fill="url(#SVGID_6_)" d="M242.3,105.5c1.7,3.9,6.3,26.2,12.5,30.1L242.3,105.5z"/>
		
			<linearGradient id="SVGID_7_" gradientUnits="userSpaceOnUse" x1="564.3199" y1="-441.7261" x2="569.444" y2="-436.9616" gradientTransform="matrix(0.9701 0.2427 0.2427 -0.9701 -188.782 -441.3987)">
			<stop  offset="0" style="stop-color:#6688BF"/>
			<stop  offset="1" style="stop-color:#FFFFFF"/>
		</linearGradient>
		<path fill="url(#SVGID_7_)" d="M251,105.9c1.7,3.9,6.3,26.2,12.5,30.1L251,105.9z"/>
		
			<linearGradient id="SVGID_8_" gradientUnits="userSpaceOnUse" x1="573.683" y1="-440.8332" x2="578.8059" y2="-436.0695" gradientTransform="matrix(0.9701 0.2427 0.2427 -0.9701 -188.782 -441.3987)">
			<stop  offset="0" style="stop-color:#6688BF"/>
			<stop  offset="1" style="stop-color:#FFFFFF"/>
		</linearGradient>
		<path fill="url(#SVGID_8_)" d="M260.3,107.3c1.7,3.9,6.3,26.2,12.5,30.1L260.3,107.3z"/>
		
			<linearGradient id="SVGID_9_" gradientUnits="userSpaceOnUse" x1="616.8218" y1="-365.9057" x2="620.864" y2="-391.5038" gradientTransform="matrix(0.9701 0.2427 0.2427 -0.9701 -188.782 -441.3987)">
			<stop  offset="0" style="stop-color:#010101"/>
			<stop  offset="1" style="stop-color:#4C5579;stop-opacity:0"/>
		</linearGradient>
		<path fill="url(#SVGID_9_)" d="M238.6,65c29.4,0.3,58,4.1,92.2,10.4c34.3,6.3,56.9,10.1,66.4,12.1c9.5,1.9,31.3,9.2,16.5,10
			C399,98.3,311,89,295.8,90.2C280.5,91.4,177.9,64.4,238.6,65z"/>
	</g>
</g>
</svg>
